<svg width="18" height="18" viewBox="0 0 18 18" fill="none" xmlns="http://www.w3.org/2000/svg">
<path d="M15.8571 11.4283C15.8571 11.9806 15.4094 12.4283 14.8571 12.4283H12.2857C11.7334 12.4283 11.2857 11.9806 11.2857 11.4283V3.14258C11.2857 2.59029 11.7334 2.14258 12.2857 2.14258H14.8571C15.4094 2.14258 15.8571 2.59029 15.8571 3.14258V11.4283ZM12.4286 10.2854C12.4286 10.8377 12.8763 11.2854 13.4286 11.2854H13.7143C14.2666 11.2854 14.7143 10.8377 14.7143 10.2854V4.28544C14.7143 3.73315 14.2666 3.28544 13.7143 3.28544H13.4286C12.8763 3.28544 12.4286 3.73315 12.4286 4.28544V10.2854Z" fill="white" stroke="white" stroke-width="0.7"/>
<path d="M8.99999 12.5713C8.99999 13.1236 8.55227 13.5713 7.99999 13.5713H5.42856C4.87627 13.5713 4.42856 13.1236 4.42856 12.5713V6.57129C4.42856 6.019 4.87627 5.57129 5.42856 5.57129H7.99999C8.55227 5.57129 8.99999 6.019 8.99999 6.57129V12.5713ZM5.57142 11.4284C5.57142 11.9807 6.01913 12.4284 6.57142 12.4284H6.85713C7.40941 12.4284 7.85713 11.9807 7.85713 11.4284V7.71415C7.85713 7.16186 7.40941 6.71415 6.85713 6.71415H6.57142C6.01913 6.71415 5.57142 7.16186 5.57142 7.71415V11.4284Z" fill="white" stroke="white" stroke-width="0.7"/>
<path d="M17 16.4286C17 16.7442 16.7442 17 16.4286 17H2.14286C1.83985 16.9997 1.54933 16.8792 1.33507 16.6649C1.12081 16.4507 1.0003 16.1602 1 15.8571V1.57143C1 1.25584 1.25584 1 1.57143 1C1.88702 1 2.14286 1.25584 2.14286 1.57143V14.8571C2.14286 15.4094 2.59057 15.8571 3.14286 15.8571H16.4286C16.7442 15.8571 17 16.113 17 16.4286Z" fill="white" stroke="white" stroke-width="0.7"/>
</svg>
